<svg width="48" height="48" viewBox="0 0 48 48" fill="none" xmlns="http://www.w3.org/2000/svg">
<path d="M42.2198 14.656L42.2198 14.656L42.219 14.6583L40.3701 20.3549C40.223 20.8083 39.8006 21.1153 39.3239 21.1153H37.7532C36.9843 21.1153 36.4526 20.3465 36.724 19.627L37.8004 16.774L37.8006 16.7734L39.9784 11.1113C40.1417 10.6865 40.5499 10.4062 41.005 10.4062H42.1632C42.9219 10.4062 43.4528 11.1561 43.2007 11.8717L42.2198 14.656ZM31.4288 15.554L31.4286 15.5544L29.7803 19.9887C29.6201 20.4196 29.2089 20.7054 28.7492 20.7054H20.9235C20.4487 20.7054 20.0276 20.4008 19.8788 19.95L18.5309 15.8632C18.2962 15.1516 18.8262 14.4186 19.5755 14.4186H23.0101C23.8666 14.4186 24.489 13.6049 24.2647 12.7783L24.1066 12.1955C23.9169 11.496 24.4436 10.8074 25.1683 10.8074H31.6268C32.3955 10.8074 32.9271 11.5758 32.6562 12.2952L31.4288 15.554ZM17.2772 33.605C17.2772 33.605 17.2772 33.605 17.2772 33.605C17.2813 33.6179 17.2878 33.6296 17.296 33.6397L17.7529 35.0521C17.9264 35.5886 18.426 35.952 18.9898 35.952H37.035C37.5986 35.952 38.098 35.5889 38.2717 35.0528L46.5202 9.59982C46.7923 8.76006 46.1663 7.89905 45.2835 7.89905H39.0522C38.5038 7.89905 38.0144 8.24316 37.8289 8.75919L30.0825 30.3026C29.796 31.0996 30.3866 31.9396 31.2335 31.9396C31.7425 31.9396 32.1983 31.6244 32.378 31.1482L34.7063 24.9763C34.8679 24.548 35.2778 24.2645 35.7355 24.2645H37.5924C38.3382 24.2645 38.8678 24.9911 38.6396 25.7011L36.3851 32.715C36.2388 33.1699 35.8157 33.4783 35.3378 33.4783H21.1435C20.6602 33.4783 20.2335 33.1629 20.0918 32.7008L13.9076 12.5308C13.6907 11.8237 14.2196 11.1084 14.9592 11.1084H18.9117C19.7715 11.1084 20.3944 10.2888 20.1643 9.46041L19.9955 8.85272C19.8389 8.28924 19.3254 7.89965 18.7406 7.9007L2.71687 7.92952C1.83425 7.93111 1.20975 8.793 1.48315 9.6322L1.67173 10.2111C1.84607 10.7462 2.34497 11.1084 2.90779 11.1084H9.31921C9.79831 11.1084 10.2223 11.4185 10.3675 11.875L17.2772 33.605ZM22.2737 7.93249C21.4237 7.93249 20.8024 8.7347 21.015 9.55762L21.2246 10.3692C21.4045 11.0655 20.8788 11.7443 20.1596 11.7443H16.4626C15.5888 11.7443 14.9638 12.5891 15.2195 13.4246L20.603 31.02C20.7702 31.5664 21.2746 31.9396 21.8461 31.9396H27.6698C28.2182 31.9396 28.7077 31.5954 28.8932 31.0794L31.4583 23.9435C31.61 23.5212 31.4019 23.0544 30.9863 22.8851C30.4768 22.6775 30.4523 21.9651 30.9465 21.723L32.0632 21.176C32.3667 21.0273 32.6003 20.7663 32.7147 20.4483L35.714 12.1044C35.7203 12.0962 35.7254 12.087 35.7291 12.0769L36.6078 9.67995C36.9188 8.83157 36.2909 7.93249 35.3873 7.93249H22.2737ZM35.7224 12.0811C35.7223 12.0813 35.7222 12.0815 35.7222 12.0816L35.7223 12.0812L35.7224 12.0811ZM21.3724 25.0392C21.1797 24.3388 21.7066 23.6472 22.433 23.6472H27.3555C28.096 23.6472 28.6249 24.3641 28.4066 25.0716L27.4757 28.0884C27.3334 28.5495 26.9072 28.864 26.4246 28.864H23.2634C22.7683 28.864 22.3342 28.5333 22.2029 28.056L21.3724 25.0392ZM22.9307 40.3657C23.8722 40.3657 24.6354 39.6024 24.6354 38.6607C24.6354 37.7191 23.8722 36.9558 22.9307 36.9558C21.9893 36.9558 21.2261 37.7191 21.2261 38.6607C21.2261 39.6024 21.9893 40.3657 22.9307 40.3657ZM33.0936 40.3657C34.0351 40.3657 34.7983 39.6024 34.7983 38.6607C34.7983 37.7191 34.0351 36.9558 33.0936 36.9558C32.1521 36.9558 31.3889 37.7191 31.3889 38.6607C31.3889 39.6024 32.1521 40.3657 33.0936 40.3657Z" fill="url(#paint0_linear_2862_19167)" stroke="url(#paint1_linear_2862_19167)" stroke-width="0.2"/>
<defs>
<linearGradient id="paint0_linear_2862_19167" x1="1.06717" y1="40.2657" x2="46.9338" y2="40.2657" gradientUnits="userSpaceOnUse">
<stop stop-color="#7873F5"/>
<stop offset="1" stop-color="#EC77AB"/>
</linearGradient>
<linearGradient id="paint1_linear_2862_19167" x1="1.06717" y1="40.2657" x2="46.9338" y2="40.2657" gradientUnits="userSpaceOnUse">
<stop stop-color="#7873F5"/>
<stop offset="1" stop-color="#EC77AB"/>
</linearGradient>
</defs>
</svg>
